<svg xmlns="http://www.w3.org/2000/svg" height="800" width="1200" viewBox="-81.96939 -20 710.40138 120"><path d="M29.9981 24.9984h25.0056v30.0067h39.9982V24.9984h25.002L149.9964 80H125.005l-14.2858-26.1848L75.0082 80 39.2863 53.8152 24.997 80H.0021z" fill="#039adc"/><path d="M149.9978 24.9984V0H0v24.9984h24.9984l2.7315-4.994H59.999v29.996h30.0102v-29.996h32.2693l2.7278 4.994z" fill="#039adc"/><path d="M544.3456 14.999L523.471 38.3495l22.9916 26.6537h-18.5517L514.3674 48.54l-14.712 16.4632h-16.4348l23.2615-26.032-19.7238-23.972h16.5626l12.073 13.9946 12.517-13.9946zM442.4597 32.8762h31.328v10.123l-31.328-.1136v12.1191h36.8832v9.9987h-50.242v-50.004h50.242v9.9987h-36.8832zm-194.5325 0h31.328v10.123l-31.328-.1136v12.1191h36.8832v9.9987h-50.242v-50.004h50.242v9.9987h-36.8832zM350.2244 14.999h23.4107L384.87 43.7058l11.5793-28.7066h23.6451v50.004h-13.5932V25.115l-16.9 39.888h-9.6968l-16.3175-40.0053v40.0054h-13.3624zm-175.2132 0h52.9627v9.9987h-19.8694v40.0054h-13.3517V24.9977h-19.7416zm118.928 0h13.5932v40.0054h36.6488v9.9987h-50.242z" fill="#231f20"/></svg>